# xmcd
#
# Track frame offsets:
#	150
#	15764
#	27097
#	37632
#	48359
#	61117
#	77887
#	89524
#	108516
#	128297
#	143227
#	162004
#	177237
#	195459
#	206884
#	221579
#	236409
#	246636
#	263326
#	279631
#	291979
#	304294
#	317514
#
# Disc length: 4435 seconds
#
# Revision: 1
# Processed by: cddbd v1.4PL0 Copyright (c) Steve Scherf et al.
# Submitted via: CDmax 1.8
#
DISCID=36115117
DTITLE=Various Artist - Blacks' N Blues
DYEAR=1900
DGENRE=Blues
TTITLE0=Never make a move too soon
TTITLE1=Who will the next fool be
TTITLE2=Need your love so bad
TTITLE3=Let's do it over
TTITLE4=Teach me tonight
TTITLE5=Come rain or shine
TTITLE6=Breakin' up somebody's home
TTITLE7=No matter how high I get
TTITLE8=Feelings
TTITLE9=A Sunday kind of love
TTITLE10=In the mood
TTITLE11=Any day now
TTITLE12=This girl's in love with you
TTITLE13=Just a matter of time
TTITLE14=A change is gonna come
TTITLE15=I'm still in love with you
TTITLE16=Everybody's somebody's fool
TTITLE17=Misty Blue
TTITLE18=This time I'm gone for good
TTITLE19=I'll be around
TTITLE20=Tell it like it is
TTITLE21=Ain't nobody's business
TTITLE22=After Hours
EXTD=
EXTT0=
EXTT1=
EXTT2=
EXTT3=
EXTT4=
EXTT5=
EXTT6=
EXTT7=
EXTT8=
EXTT9=
EXTT10=
EXTT11=
EXTT12=
EXTT13=
EXTT14=
EXTT15=
EXTT16=
EXTT17=
EXTT18=
EXTT19=
EXTT20=
EXTT21=
EXTT22=
PLAYORDER=
